# xmcd
#
# Track frame offsets: 
#        150
#        15334
#        35573
#        48155
#
# Disc length: 835 seconds
#
# Revision: 0
# Processed by: cddbd v1.5.2PL0 Copyright (c) Steve Scherf et al.
# Submitted via: ExactAudioCopy v0.99pb3
#
DISCID=23034104
DTITLE=The Drama - Nothing Can Tear Us Apart
DYEAR=2004
DGENRE=Fierce Panda
TTITLE0=Nothing Can Tear Us Apart
TTITLE1=Cops Kiss And Drool
TTITLE2=I Can't Stop
TTITLE3=Feed It To The Dogs
EXTD=
EXTT0=
EXTT1=
EXTT2=
EXTT3=
PLAYORDER=
